<svg id="svg" version="1.1" xmlns="http://www.w3.org/2000/svg" xmlns:xlink="http://www.w3.org/1999/xlink" width="400" height="400" viewBox="0, 0, 400,400"><g id="svgg"><path id="path0" d="M133.600 200.000 L 133.600 400.000 200.000 400.000 L 266.400 400.000 266.400 200.000 L 266.400 0.000 200.000 0.000 L 133.600 0.000 133.600 200.000 " stroke="none" fill="#fcfcfc" fill-rule="evenodd"></path><path id="path1" d="M266.800 200.000 L 266.800 400.000 333.400 400.000 L 400.000 400.000 400.000 200.000 L 400.000 0.000 333.400 0.000 L 266.800 0.000 266.800 200.000 " stroke="none" fill="#cc2c34" fill-rule="evenodd"></path><path id="path2" d="M0.000 200.000 L 0.000 400.000 66.400 400.000 L 132.800 400.000 132.800 200.000 L 132.800 0.000 66.400 0.000 L 0.000 0.000 0.000 200.000 " stroke="none" fill="#049444" fill-rule="evenodd"></path><path id="path3" d="M132.800 200.000 C 132.800 333.067,132.934 400.000,133.200 400.000 C 133.466 400.000,133.600 333.067,133.600 200.000 C 133.600 66.933,133.466 0.000,133.200 0.000 C 132.934 0.000,132.800 66.933,132.800 200.000 " stroke="none" fill="#54b484" fill-rule="evenodd"></path><path id="path4" d="" stroke="none" fill="#b0c8100" fill-rule="evenodd"></path></g></svg>